<mxfile host="app.diagrams.net" modified="2020-09-08T11:22:44.942Z" agent="5.0 (Macintosh)" etag="uwqPTfroeKUt3cAu4T2g" version="13.6.9" type="github">
  <diagram id="FgS1PKGfFNiu4O3C8QIE" name="Page-1">
    <mxGraphModel dx="741" dy="750" grid="1" gridSize="10" guides="1" tooltips="1" connect="1" arrows="1" fold="1" page="1" pageScale="1" pageWidth="1169" pageHeight="827" math="0" shadow="0">
      <root>
        <mxCell id="0" />
        <mxCell id="1" parent="0" />
        <mxCell id="D3_g7tFATAiRQ8DUnqoQ-7" value="&lt;div&gt;combines&lt;/div&gt;&lt;div&gt;with&lt;/div&gt;" style="edgeStyle=orthogonalEdgeStyle;rounded=0;sketch=1;orthogonalLoop=1;jettySize=auto;html=1;exitX=0.5;exitY=1;exitDx=0;exitDy=0;endArrow=classic;endFill=1;strokeColor=#000080;fontFamily=Helvetica;fontSize=12;fontColor=#000080;" parent="1" source="0yjArLSf2atDx_hs_2Yu-1" target="D3_g7tFATAiRQ8DUnqoQ-8" edge="1">
          <mxGeometry x="-0.1111" y="35" relative="1" as="geometry">
            <mxPoint x="823" y="360" as="targetPoint" />
            <mxPoint as="offset" />
          </mxGeometry>
        </mxCell>
        <mxCell id="D3_g7tFATAiRQ8DUnqoQ-30" value="acts on" style="edgeStyle=none;rounded=0;sketch=1;orthogonalLoop=1;jettySize=auto;html=1;exitX=0;exitY=0.5;exitDx=0;exitDy=0;entryX=1;entryY=0.5;entryDx=0;entryDy=0;endArrow=classic;endFill=1;strokeColor=#000080;fontFamily=Helvetica;fontSize=12;fontColor=#000080;" parent="1" source="0yjArLSf2atDx_hs_2Yu-1" target="0yjArLSf2atDx_hs_2Yu-3" edge="1">
          <mxGeometry x="0.0303" y="-10" relative="1" as="geometry">
            <mxPoint as="offset" />
          </mxGeometry>
        </mxCell>
        <mxCell id="D3_g7tFATAiRQ8DUnqoQ-49" value="requires" style="edgeStyle=orthogonalEdgeStyle;rounded=0;sketch=1;orthogonalLoop=1;jettySize=auto;html=1;exitX=1;exitY=0.5;exitDx=0;exitDy=0;endArrow=classic;endFill=1;strokeColor=#000080;fontFamily=Helvetica;fontSize=12;fontColor=#000080;" parent="1" source="0yjArLSf2atDx_hs_2Yu-1" target="0yjArLSf2atDx_hs_2Yu-13" edge="1">
          <mxGeometry x="-0.0909" y="10" relative="1" as="geometry">
            <mxPoint as="offset" />
          </mxGeometry>
        </mxCell>
        <mxCell id="0yjArLSf2atDx_hs_2Yu-1" value="&lt;div style=&quot;font-size: 12px;&quot;&gt;summarise&lt;/div&gt;" style="rounded=1;whiteSpace=wrap;html=1;sketch=1;strokeColor=#000080;fontFamily=Helvetica;strokeWidth=3;fontColor=#000080;fontStyle=3;fontSize=12;arcSize=0;" parent="1" vertex="1">
          <mxGeometry x="540" y="80" width="90" height="40" as="geometry" />
        </mxCell>
        <mxCell id="0yjArLSf2atDx_hs_2Yu-6" style="edgeStyle=orthogonalEdgeStyle;rounded=0;sketch=1;orthogonalLoop=1;jettySize=auto;html=1;exitX=1;exitY=0.5;exitDx=0;exitDy=0;entryX=1;entryY=0.5;entryDx=0;entryDy=0;strokeColor=#000080;fontFamily=Helvetica;fontColor=#000080;fontSize=12;" parent="1" source="0yjArLSf2atDx_hs_2Yu-3" target="0yjArLSf2atDx_hs_2Yu-3" edge="1">
          <mxGeometry relative="1" as="geometry" />
        </mxCell>
        <mxCell id="D3_g7tFATAiRQ8DUnqoQ-35" value="provides" style="edgeStyle=none;rounded=0;sketch=1;orthogonalLoop=1;jettySize=auto;html=1;exitX=0.5;exitY=1;exitDx=0;exitDy=0;entryX=0;entryY=0.5;entryDx=0;entryDy=0;endArrow=classic;endFill=1;strokeColor=#000080;fontFamily=Helvetica;fontSize=12;fontColor=#000080;" parent="1" source="0yjArLSf2atDx_hs_2Yu-3" target="D3_g7tFATAiRQ8DUnqoQ-12" edge="1">
          <mxGeometry x="-0.0857" y="-27" relative="1" as="geometry">
            <mxPoint as="offset" />
          </mxGeometry>
        </mxCell>
        <mxCell id="D3_g7tFATAiRQ8DUnqoQ-38" value="output of" style="edgeStyle=orthogonalEdgeStyle;rounded=0;sketch=1;orthogonalLoop=1;jettySize=auto;html=1;exitX=0.5;exitY=0;exitDx=0;exitDy=0;entryX=0.5;entryY=0;entryDx=0;entryDy=0;endArrow=classic;endFill=1;strokeColor=#000080;fontFamily=Helvetica;fontSize=12;fontColor=#000080;" parent="1" source="0yjArLSf2atDx_hs_2Yu-3" target="0yjArLSf2atDx_hs_2Yu-1" edge="1">
          <mxGeometry x="-0.0217" y="10" relative="1" as="geometry">
            <mxPoint as="offset" />
          </mxGeometry>
        </mxCell>
        <mxCell id="0yjArLSf2atDx_hs_2Yu-3" value="&lt;div style=&quot;font-size: 12px;&quot;&gt;dataframe&lt;/div&gt;" style="rounded=1;whiteSpace=wrap;html=1;sketch=1;strokeColor=#000080;fontFamily=Helvetica;strokeWidth=1;fontColor=#000080;fontStyle=0;fontSize=12;" parent="1" vertex="1">
          <mxGeometry x="130" y="100" width="90" height="40" as="geometry" />
        </mxCell>
        <mxCell id="0yjArLSf2atDx_hs_2Yu-13" value="summary function" style="whiteSpace=wrap;html=1;rounded=1;fontColor=#000080;fontStyle=0;strokeColor=#000080;strokeWidth=1;sketch=1;fontSize=12;" parent="1" vertex="1">
          <mxGeometry x="740" y="80" width="90" height="40" as="geometry" />
        </mxCell>
        <mxCell id="D3_g7tFATAiRQ8DUnqoQ-13" value="&lt;div&gt;receives&lt;/div&gt;" style="rounded=0;sketch=1;orthogonalLoop=1;jettySize=auto;html=1;endArrow=classic;endFill=1;strokeColor=#000080;fontFamily=Helvetica;fontSize=12;fontColor=#000080;entryX=0.5;entryY=0;entryDx=0;entryDy=0;" parent="1" source="D3_g7tFATAiRQ8DUnqoQ-8" target="D3_g7tFATAiRQ8DUnqoQ-12" edge="1">
          <mxGeometry x="-0.0769" y="35" relative="1" as="geometry">
            <mxPoint as="offset" />
          </mxGeometry>
        </mxCell>
        <mxCell id="D3_g7tFATAiRQ8DUnqoQ-51" value="specifies" style="edgeStyle=orthogonalEdgeStyle;rounded=0;sketch=1;orthogonalLoop=1;jettySize=auto;html=1;exitX=0;exitY=0.5;exitDx=0;exitDy=0;endArrow=classic;endFill=1;strokeColor=#000080;fontFamily=Helvetica;fontSize=12;fontColor=#000080;" parent="1" source="D3_g7tFATAiRQ8DUnqoQ-8" target="D3_g7tFATAiRQ8DUnqoQ-50" edge="1">
          <mxGeometry x="0.7838" y="-75" relative="1" as="geometry">
            <mxPoint as="offset" />
          </mxGeometry>
        </mxCell>
        <mxCell id="D3_g7tFATAiRQ8DUnqoQ-8" value="group_by" style="rounded=1;whiteSpace=wrap;html=1;sketch=1;strokeColor=#000080;strokeWidth=1;fontSize=12;fontColor=#000080;" parent="1" vertex="1">
          <mxGeometry x="540" y="190" width="90" height="40" as="geometry" />
        </mxCell>
        <mxCell id="D3_g7tFATAiRQ8DUnqoQ-44" value="specifies" style="edgeStyle=orthogonalEdgeStyle;rounded=0;sketch=1;orthogonalLoop=1;jettySize=auto;html=1;exitX=0.5;exitY=1;exitDx=0;exitDy=0;endArrow=classic;endFill=1;strokeColor=#000080;fontFamily=Helvetica;fontSize=12;fontColor=#000080;" parent="1" source="D3_g7tFATAiRQ8DUnqoQ-12" target="D3_g7tFATAiRQ8DUnqoQ-24" edge="1">
          <mxGeometry y="35" relative="1" as="geometry">
            <mxPoint as="offset" />
          </mxGeometry>
        </mxCell>
        <mxCell id="D3_g7tFATAiRQ8DUnqoQ-12" value="&lt;div&gt;grouping&lt;/div&gt;&lt;div&gt;variable&lt;br&gt;&lt;/div&gt;" style="whiteSpace=wrap;html=1;rounded=1;fontColor=#000080;strokeColor=#000080;strokeWidth=1;sketch=1;" parent="1" vertex="1">
          <mxGeometry x="540" y="270" width="90" height="40" as="geometry" />
        </mxCell>
        <mxCell id="D3_g7tFATAiRQ8DUnqoQ-42" value="of" style="edgeStyle=orthogonalEdgeStyle;rounded=0;sketch=1;orthogonalLoop=1;jettySize=auto;html=1;exitX=0.5;exitY=0;exitDx=0;exitDy=0;endArrow=classic;endFill=1;strokeColor=#000080;fontFamily=Helvetica;fontSize=12;fontColor=#000080;" parent="1" source="D3_g7tFATAiRQ8DUnqoQ-20" target="0yjArLSf2atDx_hs_2Yu-3" edge="1">
          <mxGeometry y="-15" relative="1" as="geometry">
            <mxPoint as="offset" />
          </mxGeometry>
        </mxCell>
        <mxCell id="D3_g7tFATAiRQ8DUnqoQ-20" value="rows" style="rounded=1;whiteSpace=wrap;html=1;sketch=1;strokeColor=#000080;strokeWidth=1;fontSize=12;fontColor=#000080;" parent="1" vertex="1">
          <mxGeometry x="120" y="390" width="90" height="40" as="geometry" />
        </mxCell>
        <mxCell id="D3_g7tFATAiRQ8DUnqoQ-41" value="specify" style="edgeStyle=orthogonalEdgeStyle;rounded=0;sketch=1;orthogonalLoop=1;jettySize=auto;html=1;exitX=0;exitY=0.5;exitDx=0;exitDy=0;entryX=1;entryY=0.5;entryDx=0;entryDy=0;endArrow=classic;endFill=1;strokeColor=#000080;fontFamily=Helvetica;fontSize=12;fontColor=#000080;" parent="1" source="D3_g7tFATAiRQ8DUnqoQ-24" target="D3_g7tFATAiRQ8DUnqoQ-20" edge="1">
          <mxGeometry x="0.0303" y="-20" relative="1" as="geometry">
            <mxPoint as="offset" />
          </mxGeometry>
        </mxCell>
        <mxCell id="D3_g7tFATAiRQ8DUnqoQ-24" value="group keys" style="rounded=1;whiteSpace=wrap;html=1;sketch=1;strokeColor=#000080;strokeWidth=1;fontSize=12;fontColor=#000080;" parent="1" vertex="1">
          <mxGeometry x="540" y="390" width="90" height="40" as="geometry" />
        </mxCell>
        <mxCell id="D3_g7tFATAiRQ8DUnqoQ-52" value="of" style="rounded=0;sketch=1;orthogonalLoop=1;jettySize=auto;html=1;exitX=0.5;exitY=0;exitDx=0;exitDy=0;entryX=1;entryY=1;entryDx=0;entryDy=0;endArrow=classic;endFill=1;strokeColor=#000080;fontFamily=Helvetica;fontSize=12;fontColor=#000080;edgeStyle=orthogonalEdgeStyle;" parent="1" source="D3_g7tFATAiRQ8DUnqoQ-50" target="0yjArLSf2atDx_hs_2Yu-3" edge="1">
          <mxGeometry x="-0.0233" y="10" relative="1" as="geometry">
            <mxPoint x="340" y="120" as="sourcePoint" />
            <mxPoint as="offset" />
          </mxGeometry>
        </mxCell>
        <mxCell id="D3_g7tFATAiRQ8DUnqoQ-50" value="columns" style="rounded=1;whiteSpace=wrap;html=1;sketch=1;strokeColor=#000080;strokeWidth=1;fontSize=12;fontColor=#000080;" parent="1" vertex="1">
          <mxGeometry x="340" y="140" width="90" height="40" as="geometry" />
        </mxCell>
        <mxCell id="81nSJXgKICTI2irXJMuN-9" value="requires" style="edgeStyle=orthogonalEdgeStyle;rounded=0;sketch=1;orthogonalLoop=1;jettySize=auto;html=1;exitX=0;exitY=0;exitDx=0;exitDy=0;entryX=1;entryY=0.5;entryDx=0;entryDy=0;endFill=1;strokeColor=#000080;fontSize=12;fontColor=#000080;" edge="1" parent="1" source="81nSJXgKICTI2irXJMuN-1" target="81nSJXgKICTI2irXJMuN-7">
          <mxGeometry relative="1" as="geometry" />
        </mxCell>
        <mxCell id="81nSJXgKICTI2irXJMuN-12" value="acts on" style="edgeStyle=orthogonalEdgeStyle;rounded=0;sketch=1;orthogonalLoop=1;jettySize=auto;html=1;exitX=1;exitY=1;exitDx=0;exitDy=0;entryX=0;entryY=1;entryDx=0;entryDy=0;endFill=1;strokeColor=#000080;fontSize=12;fontColor=#000080;" edge="1" parent="1" source="81nSJXgKICTI2irXJMuN-1" target="81nSJXgKICTI2irXJMuN-5">
          <mxGeometry relative="1" as="geometry" />
        </mxCell>
        <mxCell id="81nSJXgKICTI2irXJMuN-13" value="outputs" style="edgeStyle=orthogonalEdgeStyle;rounded=0;sketch=1;orthogonalLoop=1;jettySize=auto;html=1;exitX=1;exitY=0;exitDx=0;exitDy=0;entryX=0;entryY=0;entryDx=0;entryDy=0;endFill=1;strokeColor=#000080;fontSize=12;fontColor=#000080;" edge="1" parent="1" source="81nSJXgKICTI2irXJMuN-1" target="81nSJXgKICTI2irXJMuN-5">
          <mxGeometry relative="1" as="geometry" />
        </mxCell>
        <mxCell id="81nSJXgKICTI2irXJMuN-14" value="combines with" style="edgeStyle=orthogonalEdgeStyle;rounded=0;sketch=1;orthogonalLoop=1;jettySize=auto;html=1;exitX=0;exitY=1;exitDx=0;exitDy=0;entryX=1;entryY=0.5;entryDx=0;entryDy=0;endFill=1;strokeColor=#000080;fontSize=12;fontColor=#000080;" edge="1" parent="1" source="81nSJXgKICTI2irXJMuN-1" target="81nSJXgKICTI2irXJMuN-2">
          <mxGeometry relative="1" as="geometry" />
        </mxCell>
        <mxCell id="81nSJXgKICTI2irXJMuN-1" value="&lt;div style=&quot;font-size: 12px;&quot;&gt;summarise&lt;/div&gt;" style="rounded=1;whiteSpace=wrap;html=1;sketch=1;strokeColor=#000080;fontFamily=Helvetica;strokeWidth=3;fontColor=#000080;fontStyle=3;fontSize=12;arcSize=0;" vertex="1" parent="1">
          <mxGeometry x="400" y="560" width="80" height="40" as="geometry" />
        </mxCell>
        <mxCell id="81nSJXgKICTI2irXJMuN-16" style="edgeStyle=orthogonalEdgeStyle;rounded=0;sketch=1;orthogonalLoop=1;jettySize=auto;html=1;exitX=0;exitY=0.5;exitDx=0;exitDy=0;entryX=0;entryY=0.5;entryDx=0;entryDy=0;endFill=1;strokeColor=#000080;fontSize=12;fontColor=#000080;" edge="1" parent="1" source="81nSJXgKICTI2irXJMuN-2" target="81nSJXgKICTI2irXJMuN-4">
          <mxGeometry relative="1" as="geometry">
            <Array as="points">
              <mxPoint x="160" y="620" />
              <mxPoint x="160" y="660" />
            </Array>
          </mxGeometry>
        </mxCell>
        <mxCell id="81nSJXgKICTI2irXJMuN-18" style="edgeStyle=orthogonalEdgeStyle;rounded=0;sketch=1;orthogonalLoop=1;jettySize=auto;html=1;exitX=0;exitY=0.5;exitDx=0;exitDy=0;entryX=0.5;entryY=0;entryDx=0;entryDy=0;endFill=1;strokeColor=#000080;fontSize=12;fontColor=#000080;" edge="1" parent="1" source="81nSJXgKICTI2irXJMuN-2" target="81nSJXgKICTI2irXJMuN-3">
          <mxGeometry relative="1" as="geometry">
            <Array as="points">
              <mxPoint x="160" y="620" />
              <mxPoint x="160" y="460" />
              <mxPoint x="520" y="460" />
            </Array>
          </mxGeometry>
        </mxCell>
        <mxCell id="81nSJXgKICTI2irXJMuN-2" value="group_by" style="rounded=1;whiteSpace=wrap;html=1;sketch=1;strokeColor=#000080;strokeWidth=3;fontSize=12;fontColor=#000080;fontStyle=3" vertex="1" parent="1">
          <mxGeometry x="210" y="600" width="80" height="40" as="geometry" />
        </mxCell>
        <mxCell id="81nSJXgKICTI2irXJMuN-3" value="rows" style="rounded=1;whiteSpace=wrap;html=1;sketch=1;strokeColor=#000080;strokeWidth=1;fontSize=12;fontColor=#000080;" vertex="1" parent="1">
          <mxGeometry x="480" y="480" width="80" height="40" as="geometry" />
        </mxCell>
        <mxCell id="81nSJXgKICTI2irXJMuN-4" value="columns" style="rounded=1;whiteSpace=wrap;html=1;sketch=1;strokeColor=#000080;strokeWidth=1;fontSize=12;fontColor=#000080;" vertex="1" parent="1">
          <mxGeometry x="480" y="640" width="80" height="40" as="geometry" />
        </mxCell>
        <mxCell id="81nSJXgKICTI2irXJMuN-10" value="has" style="edgeStyle=orthogonalEdgeStyle;rounded=0;sketch=1;orthogonalLoop=1;jettySize=auto;html=1;exitX=0.5;exitY=0;exitDx=0;exitDy=0;entryX=1;entryY=0.5;entryDx=0;entryDy=0;endFill=1;strokeColor=#000080;fontSize=12;fontColor=#000080;" edge="1" parent="1" source="81nSJXgKICTI2irXJMuN-5" target="81nSJXgKICTI2irXJMuN-3">
          <mxGeometry relative="1" as="geometry" />
        </mxCell>
        <mxCell id="81nSJXgKICTI2irXJMuN-11" value="has" style="edgeStyle=orthogonalEdgeStyle;rounded=0;sketch=1;orthogonalLoop=1;jettySize=auto;html=1;exitX=0.5;exitY=1;exitDx=0;exitDy=0;entryX=1;entryY=0.5;entryDx=0;entryDy=0;endFill=1;strokeColor=#000080;fontSize=12;fontColor=#000080;" edge="1" parent="1" source="81nSJXgKICTI2irXJMuN-5" target="81nSJXgKICTI2irXJMuN-4">
          <mxGeometry relative="1" as="geometry" />
        </mxCell>
        <mxCell id="81nSJXgKICTI2irXJMuN-5" value="&lt;div style=&quot;font-size: 12px;&quot;&gt;dataframe&lt;/div&gt;" style="rounded=1;whiteSpace=wrap;html=1;sketch=1;strokeColor=#000080;fontFamily=Helvetica;strokeWidth=1;fontColor=#000080;fontStyle=0;fontSize=12;" vertex="1" parent="1">
          <mxGeometry x="560" y="560" width="80" height="40" as="geometry" />
        </mxCell>
        <mxCell id="81nSJXgKICTI2irXJMuN-15" style="edgeStyle=orthogonalEdgeStyle;rounded=0;sketch=1;orthogonalLoop=1;jettySize=auto;html=1;exitX=0;exitY=0.5;exitDx=0;exitDy=0;entryX=0;entryY=0.5;entryDx=0;entryDy=0;endFill=1;strokeColor=#000080;fontSize=12;fontColor=#000080;" edge="1" parent="1" source="81nSJXgKICTI2irXJMuN-7" target="81nSJXgKICTI2irXJMuN-3">
          <mxGeometry relative="1" as="geometry">
            <Array as="points">
              <mxPoint x="160" y="540" />
              <mxPoint x="160" y="500" />
            </Array>
          </mxGeometry>
        </mxCell>
        <mxCell id="81nSJXgKICTI2irXJMuN-17" style="edgeStyle=orthogonalEdgeStyle;rounded=0;sketch=1;orthogonalLoop=1;jettySize=auto;html=1;exitX=0;exitY=0.5;exitDx=0;exitDy=0;entryX=0.5;entryY=1;entryDx=0;entryDy=0;endFill=1;strokeColor=#000080;fontSize=12;fontColor=#000080;" edge="1" parent="1" source="81nSJXgKICTI2irXJMuN-7" target="81nSJXgKICTI2irXJMuN-4">
          <mxGeometry relative="1" as="geometry">
            <Array as="points">
              <mxPoint x="160" y="540" />
              <mxPoint x="160" y="700" />
              <mxPoint x="520" y="700" />
            </Array>
          </mxGeometry>
        </mxCell>
        <mxCell id="81nSJXgKICTI2irXJMuN-7" value="summary function" style="whiteSpace=wrap;html=1;rounded=1;fontColor=#000080;fontStyle=0;strokeColor=#000080;strokeWidth=1;sketch=1;fontSize=12;" vertex="1" parent="1">
          <mxGeometry x="210" y="520" width="80" height="40" as="geometry" />
        </mxCell>
      </root>
    </mxGraphModel>
  </diagram>
</mxfile>
